<svg width="252" height="90" viewBox="4 86 252 90" xmlns="http://www.w3.org/2000/svg">
  <!-- shades whose lenses display the Scala bars: Sage reading the data -->
  <g fill="#E6E6E6">
    <rect x="24" y="92" width="94" height="78" rx="22"/>
    <rect x="142" y="92" width="94" height="78" rx="22"/>
    <rect x="112" y="118" width="36" height="14" rx="7"/>
  </g>
  <rect x="33" y="101" width="76" height="60" rx="14" fill="#1F2125"/>
  <rect x="151" y="101" width="76" height="60" rx="14" fill="#1F2125"/>
  <g fill="#CB4239">
    <rect x="45" y="112" width="52" height="9" rx="4.5"/>
    <rect x="45" y="127" width="52" height="9" rx="4.5"/>
    <rect x="45" y="142" width="52" height="9" rx="4.5"/>
    <rect x="163" y="112" width="52" height="9" rx="4.5"/>
    <rect x="163" y="127" width="52" height="9" rx="4.5"/>
    <rect x="163" y="142" width="52" height="9" rx="4.5"/>
  </g>
  <path d="M24 110 l-12 -6" fill="none" stroke="#E6E6E6" stroke-width="11"/>
  <path d="M236 110 l12 -6" fill="none" stroke="#E6E6E6" stroke-width="11"/>
</svg>
